<svg width="49" height="49" viewBox="0 0 49 49" fill="none" xmlns="http://www.w3.org/2000/svg">
<rect width="49" height="49" rx="5" fill="white"/>
<path d="M6.44727 20.25V17.9535H7.03233C7.55581 17.9535 7.98691 18.0116 8.29484 18.186C8.60277 18.3605 8.78753 18.6512 8.78753 19.1163C8.78753 19.9012 8.29484 20.25 7.12471 20.25H6.44727ZM5.03079 21.3547H7.09392C9.40339 21.3547 10.2348 20.3953 10.2348 19.0581C10.2348 18.157 9.83449 17.5465 9.12625 17.1977C8.57198 16.907 7.86374 16.8198 7.00154 16.8198H6.44727V15.0756H9.55735L9.92687 14H5V21.3547H5.03079ZM11.1894 21.3547H12.5443L14.2995 18.9709C14.6382 18.5349 14.8845 18.0988 15.0385 17.8663H15.0693C15.0385 18.186 15.0077 18.593 15.0077 19V21.3256H16.3934V16.093H15.0385L13.2833 18.4767C12.9754 18.9128 12.6982 19.3488 12.5443 19.5814H12.5135C12.5443 19.2616 12.5751 18.8547 12.5751 18.4477V16.1221H11.1894V21.3547ZM18.7644 21.3547H20.1809V17.1977H21.8437L22.2132 16.093H17.0708V17.1977H18.7644V21.3547ZM22.7059 24H24.0916V21.3547C24.3687 21.4419 24.6459 21.4709 24.9538 21.4709C26.709 21.4709 27.8483 20.3372 27.8483 18.7093C27.8483 17.0233 26.8014 15.9477 24.7998 15.9477C24.03 15.9477 23.291 16.093 22.6751 16.2674V24H22.7059ZM24.0916 20.2209V17.1395C24.3072 17.0814 24.4919 17.0523 24.7383 17.0523C25.7544 17.0523 26.4011 17.5756 26.4011 18.7093C26.4011 19.7267 25.8776 20.3663 24.8306 20.3663C24.5535 20.3663 24.338 20.3081 24.0916 20.2209ZM28.6798 21.3547H30.0346L31.7898 18.9709C32.1286 18.5349 32.3749 18.0988 32.5289 17.8663H32.5597C32.5289 18.186 32.4981 18.593 32.4981 19V21.3256H33.8838V16.093H32.5289L30.7737 18.4767C30.4657 18.9128 30.1886 19.3488 30.0346 19.5814H30.0038C30.0346 19.2616 30.0654 18.8547 30.0654 18.4477V16.1221H28.6798V21.3547ZM34.9923 21.3547H36.4088V19.1744H37.2402C37.3941 19.1744 37.5481 19.3198 37.7329 19.6686L38.4411 21.3547H39.95L38.9338 19.3488C38.749 19 38.5643 18.7965 38.2871 18.7093V18.6802C38.749 18.4186 38.8106 17.6628 39.0878 17.2849C39.1801 17.1686 39.3033 17.1105 39.4881 17.1105C39.5804 17.1105 39.7036 17.1105 39.796 17.1686V16.0349C39.642 15.9767 39.3649 15.9477 39.2109 15.9477C38.7182 15.9477 38.4103 16.1221 38.1948 16.4128C37.7329 17.0523 37.7329 18.157 37.0554 18.157H36.4088V16.093H34.9923V21.3547ZM43.0908 21.4709C43.8607 21.4709 44.5689 21.2384 45 20.9477L44.5997 20.0465C44.1994 20.25 43.8299 20.3953 43.3064 20.3953C42.3518 20.3953 41.736 19.814 41.736 18.7384C41.736 17.7791 42.3518 17.0233 43.3988 17.0233C43.953 17.0233 44.3534 17.1686 44.7537 17.4302V16.2965C44.4457 16.1221 43.953 15.9477 43.2448 15.9477C41.582 15.9477 40.2887 17.1105 40.2887 18.7674C40.2887 20.2791 41.2741 21.4709 43.0908 21.4709Z" fill="#292020"/>
<path d="M17.5 35H24.5027V33.6181H19.8873C20.5239 31.3504 24.4231 30.8543 24.4231 28.3386C24.4231 26.9921 23.3886 26 21.2003 26C19.8475 26 18.6538 26.3543 17.8581 26.7087L18.3355 27.9843C19.0517 27.6654 19.8873 27.3819 20.9218 27.3819C21.7175 27.3819 22.4735 27.7008 22.4735 28.5157C22.4735 30.3583 17.8979 30.5 17.5 35ZM24.7016 32.8032H29.1976V35H30.9881V32.8032H32.5V31.4567H30.9881V26H29.6751L24.7016 31.7402V32.8032ZM26.7308 31.5276L29.2772 28.4803C29.2772 28.7283 29.1976 29.5079 29.1976 30.2165V31.4921H28.004C27.6459 31.4921 26.9695 31.5276 26.7308 31.5276Z" fill="#292020"/>
</svg>
