<svg width="48" height="49" viewBox="0 0 48 49" fill="none" xmlns="http://www.w3.org/2000/svg">
<rect width="48" height="49" rx="5" fill="white"/>
<path d="M34 14L32.1247 32.9582L23.9999 35L15.8749 32.9582L14 14H34ZM30.2212 17.8549H23.9926H17.6536L17.9567 20.1442H23.9926H24.3316L23.9926 20.2759L18.1773 22.5365L18.3702 24.7743L23.9926 24.7913L27.006 24.8002L26.8131 27.784L23.9925 28.5252V28.5229L23.9694 28.5289L21.2454 27.8871L21.0802 26.0349H21.0711H18.5445H18.5356L18.8663 29.6105L23.9926 31.0254V31.0228L24.0018 31.0254L29.1006 29.6363L29.762 22.5365H23.9926H23.9784L23.9926 22.5307L29.9734 20.1442L30.2212 17.8549Z" fill="#292020"/>
</svg>
