<svg width="48" height="49" viewBox="0 0 48 49" fill="none" xmlns="http://www.w3.org/2000/svg">
<rect width="48" height="49" rx="5" fill="white"/>
<path d="M24.0436 14H20.848C19.0831 14 17.6523 15.4307 17.6523 17.1957C17.6523 18.9606 19.0831 20.3913 20.848 20.3913H24.0436V14Z" fill="#292020"/>
<path d="M24.9565 14H28.1522C29.9171 14 31.3478 15.4307 31.3478 17.1957C31.3478 18.9606 29.9171 20.3913 28.1522 20.3913H24.9565V14Z" fill="#292020"/>
<path d="M24.0436 21.3047H20.848C19.0831 21.3047 17.6523 22.7354 17.6523 24.5003C17.6523 26.2653 19.0831 27.696 20.848 27.696H24.0436V21.3047Z" fill="#292020"/>
<path d="M24.0436 28.6084H20.848C19.0831 28.6084 17.6523 30.0391 17.6523 31.8041C17.6523 33.569 19.0831 34.9997 20.848 34.9997C22.6129 34.9997 24.0436 33.569 24.0436 31.8041V28.6084Z" fill="#292020"/>
<path d="M28.1522 27.696C29.9171 27.696 31.3478 26.2653 31.3478 24.5003C31.3478 22.7354 29.9171 21.3047 28.1522 21.3047C26.3873 21.3047 24.9565 22.7354 24.9565 24.5003C24.9565 26.2653 26.3873 27.696 28.1522 27.696Z" fill="#292020"/>
</svg>
