<svg width="49" height="49" viewBox="0 0 49 49" fill="none" xmlns="http://www.w3.org/2000/svg">
<rect width="49" height="49" rx="5" fill="white"/>
<rect width="49" height="49" rx="2" fill="white"/>
<path fill-rule="evenodd" clip-rule="evenodd" d="M30.039 20.3H30.0311H20.4578L20.6867 22.4H29.8112C29.6775 24.2396 29.2729 28.137 29.1244 29.9105L23.9994 31.2737V31.2778L23.9881 31.283L18.8597 29.5777L18.5084 25.55H21.0222L21.2001 27.7161L23.9926 28.7H23.9994L26.7874 27.7551L27.0742 24.5H18.3962C18.3543 24.0789 17.8148 18.6116 17.7207 18.2H30.2634C30.1931 18.893 30.1217 19.6049 30.039 20.3ZM14 14L15.8201 33.0553L23.9881 35L32.1776 33.0164L34 14H14Z" fill="#292020"/>
</svg>
