<svg width="183" height="183" viewBox="0 0 183 183" fill="none" xmlns="http://www.w3.org/2000/svg">
<g clip-path="url(#clip0_13_799)">
<path d="M157.221 73.3936C147.437 36.8799 109.907 15.2118 73.3934 24.9956C36.8798 34.7794 15.2117 72.3097 24.9955 108.823C34.7793 145.337 72.3096 167.005 108.823 157.221C145.337 147.438 167.005 109.907 157.221 73.3936ZM162.97 71.8531C173.605 111.542 150.052 152.336 110.364 162.97C70.675 173.605 29.8811 150.052 19.2465 110.364C8.61199 70.6751 32.1644 29.8812 71.853 19.2466C111.542 8.6121 152.336 32.1645 162.97 71.8531Z" fill="white"/>
<path d="M126.457 81.6366C116.617 44.9127 92.0915 19.9853 72.5313 25.2265C52.9702 30.4679 44.1947 64.3173 54.035 101.042C63.8754 137.767 88.4 162.694 107.961 157.452C127.521 152.211 136.298 118.36 126.457 81.6366ZM132.206 80.0961C142.784 119.574 133.114 156.874 109.502 163.201C85.8885 169.528 58.8642 142.061 48.2861 102.583C37.7079 63.1043 47.3778 25.8046 70.9909 19.4775C94.603 13.1507 121.628 40.6187 132.206 80.0961Z" fill="white"/>
<path d="M22.7994 111.57L160.635 74.6374C162.222 74.212 163.164 72.5803 162.739 70.9927C162.314 69.4052 160.682 68.4631 159.094 68.8885L21.259 105.821C19.6714 106.247 18.7293 107.878 19.1547 109.466C19.5801 111.054 21.2119 111.996 22.7994 111.57Z" fill="white"/>
<path d="M69.4587 23.049L106.409 160.949C106.834 162.537 108.466 163.479 110.054 163.053C111.641 162.628 112.583 160.996 112.158 159.409L75.2076 21.5086C74.7823 19.9211 73.1505 18.979 71.563 19.4043C69.9754 19.8297 69.0333 21.4615 69.4587 23.049Z" fill="white"/>
</g>
<defs>
<clipPath id="clip0_13_799">
<rect width="148.794" height="148.794" fill="white" transform="translate(-0.00878906 38.502) rotate(-15)"/>
</clipPath>
</defs>
</svg>
