<svg width="49" height="49" viewBox="0 0 49 49" fill="none" xmlns="http://www.w3.org/2000/svg">
<rect width="49" height="49" rx="5" fill="white"/>
<path d="M15 14.0457C17.1239 13.9587 19.252 14.0706 21.3781 14.0354C23.7235 13.9629 26.0668 14.0229 28.4144 14.0312C30.2763 14.0354 32.1381 14.0229 34 14.0374C33.4142 20.3199 32.8241 26.6023 32.2809 32.8888C29.7863 33.5786 27.2896 34.258 24.795 34.9436C24.4755 35.0721 24.1474 34.9519 23.8407 34.8711C21.4697 34.2083 19.0987 33.5517 16.7234 32.9137C16.1056 26.6292 15.524 20.3385 15 14.0457ZM24.5394 15.6842C24.4521 18.7829 24.5266 21.8817 24.5011 24.9804C24.5245 27.814 24.4585 30.6497 24.5352 33.4833C26.6314 33.0028 28.6999 32.4124 30.7684 31.8304C31.2882 26.4511 31.7952 21.0718 32.2297 15.6862C29.667 15.6614 27.1021 15.6904 24.5394 15.6842ZM21.8723 27.785C20.641 27.4578 19.4246 27.0808 18.1763 26.8218C18.14 27.5427 18.1528 28.2635 18.238 28.9802C20.0658 29.4131 21.8553 29.9827 23.6852 30.4074C23.6979 26.304 23.6788 22.1986 23.6937 18.0952C23.0972 18.0807 22.5007 18.0724 21.9043 18.06C21.8361 21.2996 21.9 24.5434 21.8723 27.785Z" fill="#292020"/>
<path d="M24.5395 15.684C27.1022 15.6902 29.6671 15.6612 32.2298 15.686C31.7952 21.0715 31.2882 26.4509 30.7684 31.8302C28.6999 32.4122 26.6314 33.0026 24.5352 33.4831C24.4585 30.6495 24.5246 27.8138 24.5011 24.9802C24.5267 21.8815 24.4521 18.7827 24.5395 15.684ZM25.2574 18.0929C25.2659 20.7608 25.268 23.4308 25.2574 26.0987C26.51 25.902 27.7583 25.6762 29.0067 25.4545C28.9875 26.0759 28.9619 26.6974 28.9342 27.3188C27.7179 27.6336 26.5036 27.9588 25.2808 28.2509C25.2616 28.9676 25.2595 29.6842 25.2659 30.403C26.8061 30.0674 28.3229 29.6449 29.8524 29.27C30.0441 29.183 30.4127 29.1933 30.3956 28.9013C30.581 26.9832 30.696 25.0568 30.8749 23.1346C29.6074 23.2361 28.3527 23.4433 27.0852 23.5282C27.0745 22.4386 27.0724 21.3491 27.0894 20.2596C28.423 20.2596 29.7544 20.2596 31.088 20.2616C31.1732 19.5346 31.2477 18.8055 31.3053 18.0764C29.29 18.0847 27.2726 18.0577 25.2574 18.0929Z" fill="#292020"/>
<path d="M21.8723 27.7846C21.9 24.5429 21.8361 21.2992 21.9042 18.0596C22.5007 18.072 23.0972 18.0803 23.6937 18.0948C23.6788 22.1981 23.6979 26.3036 23.6852 30.4069C21.8553 29.9823 20.0658 29.4127 18.238 28.9798C18.1528 28.2631 18.14 27.5422 18.1763 26.8214C19.4246 27.0803 20.641 27.4573 21.8723 27.7846Z" fill="white"/>
</svg>
